<?xml version="1.0" encoding="UTF-8"?><!DOCTYPE svg PUBLIC "-//W3C//DTD SVG 1.1//EN" "http://www.w3.org/Graphics/SVG/1.1/DTD/svg11.dtd"><svg xmlns="http://www.w3.org/2000/svg"><symbol id="ico-add" viewBox="0 0 24 24">
    <path fill-rule="evenodd" clip-rule="evenodd" d="M20.82 11.5A9.77 9.77 0 0 0 12 6a9.77 9.77 0 0 0-8.82 5.5A9.77 9.77 0 0 0 12 17a9.77 9.77 0 0 0 8.82-5.5zM1 11.5C2.73 7.11 7 4 12 4s9.27 3.11 11 7.5c-1.73 4.39-6 7.5-11 7.5s-9.27-3.11-11-7.5zm13.5 0a2.5 2.5 0 0 0-5 0 2.5 2.5 0 0 0 5 0zm-7 0C7.5 9.02 9.52 7 12 7s4.5 2.02 4.5 4.5S14.48 16 12 16s-4.5-2.02-4.5-4.5z"/>
</symbol></svg>